<svg width="739" height="426" viewBox="0 0 739 426" fill="none" xmlns="http://www.w3.org/2000/svg">
<path d="M17.61 0.550049H93.51C113.55 0.550049 129.57 5.80995 141.56 16.3199C153.55 26.8399 159.55 41.5401 159.55 60.4301C159.55 79.3201 153.59 94.81 141.68 105.4C129.77 116 113.71 121.29 93.5 121.29H61.22V172.79H17.6V0.540039L17.61 0.550049ZM86.61 84.58C95.32 84.58 102.17 82.77 107.19 79.16C112.2 75.55 114.71 69.3001 114.71 60.4301C114.71 51.5601 112.25 45.4799 107.32 42.1899C102.39 38.9099 95.49 37.26 86.62 37.26H61.24V84.5699H86.62L86.61 84.58Z" fill="#0303B5"/>
<path d="M190.36 168.49C179.35 163.15 170.85 155.76 164.85 146.31C158.85 136.86 155.86 125.98 155.86 113.66C155.86 101.34 158.86 90.4599 164.85 81.0099C170.85 71.5699 179.35 64.1698 190.36 58.8298C201.36 53.4898 214.18 50.8198 228.8 50.8198C243.42 50.8198 256.23 53.4898 267.24 58.8298C278.24 64.1698 286.75 71.5599 292.75 81.0099C298.74 90.4599 301.74 101.34 301.74 113.66C301.74 125.98 298.74 136.87 292.75 146.31C286.75 155.76 278.25 163.15 267.24 168.49C256.23 173.83 243.42 176.5 228.8 176.5C214.18 176.5 201.36 173.83 190.36 168.49ZM249.62 134.98C254.79 129.81 257.38 122.7 257.38 113.66C257.38 104.62 254.79 97.5198 249.62 92.3398C244.45 87.1698 237.5 84.5798 228.8 84.5798C220.1 84.5798 213.15 87.1698 207.98 92.3398C202.8 97.5098 200.22 104.62 200.22 113.66C200.22 122.7 202.81 129.8 207.98 134.98C213.15 140.15 220.09 142.74 228.8 142.74C237.51 142.74 244.45 140.15 249.62 134.98Z" fill="#0303B5"/>
<path d="M318.99 54.5199H360.88V67.5798C365.97 61.9998 372.13 57.8099 379.36 55.0099C386.59 52.2199 394.15 50.8198 402.03 50.8198C418.62 50.8198 430.9 55.1299 438.87 63.7599C446.84 72.3799 450.82 84.0899 450.82 98.8799V172.81H407.45V104.55C407.45 91.2399 401.37 84.5898 389.21 84.5898C383.62 84.5898 378.53 85.8599 373.93 88.4099C369.33 90.9599 365.47 94.8599 362.35 100.12V172.82H318.98V54.5299L318.99 54.5199Z" fill="#0303B5"/>
<path d="M30.35 339.19C22.27 330.4 18.23 318.38 18.23 303.11V253.05H0.119995V220.57H18.23V182.23H65.09V220.57H94.38V253.05H65.09V296.72C65.09 303.64 66.38 308.61 68.95 311.63C71.52 314.65 76.09 316.16 82.66 316.16C88.52 316.16 94.38 314.56 100.23 311.37V346.25C95.61 348.38 90.69 349.93 85.45 350.91C80.21 351.88 73.78 352.37 66.14 352.37C50.34 352.37 38.4 347.98 30.33 339.19H30.35Z" fill="#0303B5"/>
<path d="M124.07 337.72C115.28 327.96 110.89 315.09 110.89 299.11V220.56H157.75V293.78C157.75 308.52 164.41 315.88 177.72 315.88C183.75 315.88 189.26 314.46 194.23 311.62C199.2 308.78 203.28 304.61 206.48 299.11V220.56H253.34V348.37H208.07V334.52C202.57 340.38 195.91 344.82 188.1 347.83C180.29 350.85 172.12 352.36 163.6 352.36C146.03 352.36 132.85 347.48 124.06 337.72H124.07Z" fill="#0303B5"/>
<path d="M282.77 340.78C272.92 333.06 267.99 322.27 267.99 308.43C267.99 294.59 272.74 283 282.24 275.28C291.73 267.56 305.36 263.7 323.11 263.7C330.03 263.7 336.96 264.46 343.88 265.96C350.8 267.47 356.75 269.47 361.72 271.95V269.29C361.72 255.62 350.54 248.79 328.17 248.79C312.55 248.79 298.26 251.81 285.3 257.84V225.62C290.98 222.96 298.44 220.79 307.67 219.1C316.9 217.42 326.48 216.57 336.43 216.57C360.22 216.57 378.19 221.32 390.35 230.82C402.51 240.32 408.59 253.59 408.59 270.63V348.38H364.66V337.46C359.87 342.08 353.83 345.71 346.55 348.38C339.27 351.04 330.93 352.37 321.52 352.37C305.54 352.37 292.63 348.51 282.78 340.79L282.77 340.78ZM350.8 320.28C355.59 318.06 359.23 315.18 361.72 311.63V300.45C354.09 295.3 345.39 292.73 335.63 292.73C329.41 292.73 324.62 294.06 321.25 296.72C317.88 299.38 316.19 303.29 316.19 308.44C316.19 313.23 317.83 316.96 321.12 319.62C324.4 322.28 329.15 323.61 335.37 323.61C340.87 323.61 346.02 322.5 350.81 320.28H350.8Z" fill="#0303B5"/>
<path d="M485.5 299.72L474.06 335.03C470.79 345.17 463.92 352.36 450.52 352.36C437.12 352.36 426.32 342.55 426.32 329.47C426.32 324.24 427.96 320.31 428.61 318.68L494.33 140.8C499.89 125.76 512.64 113.66 529.32 113.66C546 113.66 558.75 125.11 564.31 140.8L628.4 318.68C630.36 323.91 631.02 328.49 631.02 330.78C631.02 343.53 620.56 352.36 608.46 352.36C594.73 352.36 587.86 345.17 584.59 335.36L573.15 299.72H485.52H485.5ZM529.64 164.67H528.99L499.89 254.59H558.75L529.65 164.67H529.64Z" fill="url(#paint0_linear_36_1117)"/>
<path d="M646.38 141.13C646.38 124.78 656.84 115.62 670.9 115.62C684.96 115.62 695.43 124.78 695.43 141.13V326.86C695.43 343.21 684.97 352.36 670.9 352.36C656.83 352.36 646.38 343.2 646.38 326.86V141.13Z" fill="url(#paint1_linear_36_1117)"/>
<path d="M738.01 367.26C737.66 376.79 730.01 384.07 720.69 383.74C710.95 383.4 703.78 375.88 704.15 366.38C704.53 356.57 712.36 349.17 722.38 349.92C731 350.56 738.39 358.23 738.01 367.26Z" fill="url(#paint2_linear_36_1117)"/>
<path d="M457.16 425.27C456.44 425.19 455.72 425.07 455 425.05C443.14 424.71 431.31 423.92 419.53 422.7C405.46 421.24 391.47 419.32 377.6 416.66C364.69 414.18 351.86 411.42 339.24 407.91C327.52 404.64 315.92 401.02 304.18 397.79C291.48 394.29 278.64 391.24 265.59 389.03C254.04 387.08 242.47 385.21 230.83 383.79C220.22 382.5 209.54 381.59 198.85 381C187.42 380.37 175.96 380.01 164.52 380.09C152.64 380.17 140.75 380.72 128.88 381.42C113.94 382.31 99.1 384.07 84.35 386.37C64.19 389.5 44.32 393.8 24.77 399.23C16.89 401.42 9.11001 403.94 1.29001 406.3C0.950009 406.4 0.610012 406.48 0.200012 406.41C2.41001 405.49 4.61002 404.57 6.83002 403.66C20.09 398.23 33.61 393.4 47.44 389.28C68.3 383.07 89.59 378.48 111.25 375.28C125.29 373.2 139.41 371.64 153.63 370.91C162.02 370.48 170.43 370.29 178.84 369.99C179.12 369.98 179.4 369.89 179.68 369.84C186.95 369.93 194.22 370.03 201.49 370.12C202.32 370.2 203.16 370.32 203.99 370.35C216.07 370.79 228.1 371.74 240.1 373.1C258.61 375.2 276.9 378.39 295 382.54C309.42 385.85 323.5 390.16 337.67 394.18C355.27 399.17 373.1 403.31 391.26 406.2C400.71 407.71 410.18 409.13 419.69 410.32C431.63 411.81 443.62 412.89 455.66 413.31C466.55 413.69 477.45 414.02 488.34 414.05C501.31 414.08 514.27 413.6 527.19 412.43C537.03 411.54 546.9 410.78 556.67 409.46C568.05 407.93 579.38 406 590.67 403.99C607.18 401.05 623.28 396.67 639.36 392.27C657.18 387.39 674.99 382.5 692.8 377.62C693.25 377.5 693.71 377.39 694.22 377.43C694.02 377.53 693.82 377.65 693.6 377.73C669.29 386.59 645.01 395.52 620.3 403.42C604.23 408.56 587.77 412.48 571.14 415.82C560.32 417.99 549.42 419.76 538.46 421.13C528.93 422.32 519.33 423.22 509.74 423.9C499.77 424.6 489.77 424.91 479.78 425.32C477.04 425.43 474.29 425.3 471.55 425.29C471.28 425.29 471 425.39 470.73 425.44C466.21 425.38 461.68 425.32 457.16 425.26V425.27Z" fill="url(#paint3_linear_36_1117)"/>
<defs>
<linearGradient id="paint0_linear_36_1117" x1="443.74" y1="356.08" x2="614.97" y2="184.84" gradientUnits="userSpaceOnUse">
<stop offset="0.31" stop-color="#E737A3"/>
<stop offset="0.46" stop-color="#A127A8"/>
<stop offset="0.77" stop-color="#0303B5"/>
<stop offset="1" stop-color="#036FB5"/>
</linearGradient>
<linearGradient id="paint1_linear_36_1117" x1="606.26" y1="298.64" x2="735.55" y2="169.35" gradientUnits="userSpaceOnUse">
<stop offset="0.31" stop-color="#E737A3"/>
<stop offset="0.46" stop-color="#A127A8"/>
<stop offset="0.77" stop-color="#0303B5"/>
<stop offset="1" stop-color="#036FB5"/>
</linearGradient>
<linearGradient id="paint2_linear_36_1117" x1="708.569" y1="378.442" x2="733.415" y2="355.288" gradientUnits="userSpaceOnUse">
<stop offset="0.31" stop-color="#E737A3"/>
<stop offset="0.44" stop-color="#A127A8"/>
<stop offset="0.72" stop-color="#0303B5"/>
<stop offset="1" stop-color="#036FB5"/>
</linearGradient>
<linearGradient id="paint3_linear_36_1117" x1="0.433495" y1="393.558" x2="693.956" y2="402.515" gradientUnits="userSpaceOnUse">
<stop offset="0.2" stop-color="#E737A3"/>
<stop offset="0.21" stop-color="#E336A3"/>
<stop offset="0.3" stop-color="#A026A8"/>
<stop offset="0.39" stop-color="#681AAD"/>
<stop offset="0.48" stop-color="#3C10B0"/>
<stop offset="0.55" stop-color="#1D08B2"/>
<stop offset="0.61" stop-color="#0904B4"/>
<stop offset="0.66" stop-color="#0303B5"/>
<stop offset="1" stop-color="#036FB5"/>
</linearGradient>
</defs>
</svg>
