<svg width="104" height="32" viewBox="0 0 104 32" fill="none" xmlns="http://www.w3.org/2000/svg">
<path d="M103.547 23.8959C103.52 25.0652 102.592 25.9696 101.449 25.944C100.254 25.9173 99.3638 25.0064 99.3937 23.8414C99.4236 22.638 100.373 21.7186 101.603 21.7944C102.661 21.8595 103.579 22.7875 103.548 23.8959H103.547Z" fill="url(#paint0_linear_2131_30392)"/>
<path d="M63.7619 31.999C63.6615 31.9904 63.5612 31.9765 63.4608 31.9755C61.8067 31.952 60.1548 31.873 58.5092 31.7384C56.5444 31.5782 54.5892 31.3615 52.65 31.0507C50.8453 30.7614 49.0503 30.4367 47.2851 30.0171C45.6449 29.6263 44.0197 29.1927 42.3773 28.8062C40.6004 28.3886 38.8032 28.0266 36.9804 27.7714C35.3669 27.5461 33.7492 27.3304 32.1239 27.1713C30.6417 27.0261 29.15 26.9311 27.6593 26.8745C26.065 26.8147 24.4653 26.788 22.8689 26.8168C21.2116 26.8467 19.5543 26.9342 17.9013 27.0421C15.819 27.1777 13.7527 27.4233 11.6993 27.7341C8.89299 28.1591 6.13048 28.7293 3.41389 29.4426C2.31829 29.7298 1.2387 30.0577 0.151634 30.3673C0.104649 30.3801 0.0565956 30.3919 0 30.3823C0.306471 30.2637 0.611874 30.1441 0.919412 30.0278C2.7593 29.3262 4.63657 28.6983 6.55762 28.1601C9.45574 27.3486 12.4169 26.7399 15.4325 26.3021C17.3877 26.0191 19.3536 25.8002 21.3344 25.686C22.5048 25.6176 23.6773 25.5813 24.8476 25.5301C24.8871 25.5279 24.9256 25.5162 24.9651 25.5098C25.9795 25.5098 26.9929 25.5098 28.0074 25.5098C28.1238 25.5183 28.2402 25.5311 28.3566 25.5343C30.0416 25.5706 31.7224 25.6689 33.3978 25.8194C35.9831 26.0522 38.5406 26.4217 41.0713 26.9129C43.0874 27.3037 45.0597 27.8206 47.0438 28.3011C49.5073 28.898 52.0018 29.3871 54.54 29.7202C55.861 29.8932 57.1851 30.0566 58.5124 30.189C60.1804 30.3556 61.8548 30.472 63.5345 30.504C65.054 30.5339 66.5746 30.5585 68.0931 30.5435C69.902 30.5264 71.7088 30.4453 73.5081 30.2776C74.8782 30.1495 76.2535 30.0384 77.614 29.858C79.1987 29.6476 80.7748 29.3881 82.3466 29.118C84.6436 28.7229 86.8807 28.1484 89.1157 27.5707C91.592 26.931 94.0673 26.2893 96.5425 25.6486C96.6055 25.6326 96.6685 25.6187 96.7401 25.623C96.7113 25.6358 96.6846 25.6507 96.6547 25.6614C93.2803 26.8114 89.9102 27.969 86.4781 28.9984C84.2463 29.6679 81.958 30.1869 79.6439 30.6321C78.1394 30.9215 76.623 31.1607 75.096 31.3497C73.7687 31.5142 72.4328 31.6434 71.0948 31.7438C69.7055 31.8473 68.3109 31.9018 66.9185 31.9701C66.5372 31.9883 66.1528 31.9765 65.7705 31.9797C65.7321 31.9797 65.6947 31.9926 65.6563 32H63.763L63.7619 31.999Z" fill="url(#paint1_linear_2131_30392)"/>
<path d="M0.000244141 6.79004H6.54718C8.27602 6.79004 9.65781 7.24387 10.6915 8.15045C11.7262 9.05704 12.2431 10.3256 12.2431 11.9551C12.2431 13.5846 11.7294 14.9205 10.7022 15.8346C9.6749 16.7486 8.2899 17.2056 6.54718 17.2056H3.76225V21.6478H0.000244141V6.79004ZM5.95133 14.0385C6.70202 14.0385 7.29361 13.8826 7.72608 13.5708C8.15856 13.259 8.37426 12.7208 8.37426 11.9551C8.37426 11.1895 8.16176 10.6663 7.73676 10.3822C7.31176 10.0992 6.71697 9.95722 5.95133 9.95722H3.76225V14.0385H5.95133Z" fill="#0303B5"/>
<path d="M14.8992 21.2765C13.9499 20.8163 13.2163 20.1788 12.6994 19.364C12.1815 18.5493 11.9231 17.6106 11.9231 16.5481C11.9231 15.4857 12.1815 14.547 12.6994 13.7323C13.2163 12.9175 13.9499 12.28 14.8992 11.8198C15.8485 11.3596 16.9537 11.1289 18.2148 11.1289C19.4759 11.1289 20.5812 11.3596 21.5305 11.8198C22.4798 12.28 23.2134 12.9186 23.7302 13.7323C24.2471 14.547 24.5055 15.4857 24.5055 16.5481C24.5055 17.6106 24.2471 18.5503 23.7302 19.364C23.2123 20.1788 22.4798 20.8163 21.5305 21.2765C20.5812 21.7367 19.4759 21.9674 18.2148 21.9674C16.9537 21.9674 15.8485 21.7367 14.8992 21.2765ZM20.0109 18.3859C20.4573 17.9395 20.6805 17.3266 20.6805 16.5471C20.6805 15.7676 20.4573 15.1546 20.0109 14.7083C19.5646 14.2619 18.9655 14.0387 18.2148 14.0387C17.4641 14.0387 16.8651 14.2619 16.4187 14.7083C15.9724 15.1546 15.7492 15.7676 15.7492 16.5471C15.7492 17.3266 15.9724 17.9395 16.4187 18.3859C16.8651 18.8322 17.4631 19.0554 18.2148 19.0554C18.9666 19.0554 19.5646 18.8322 20.0109 18.3859Z" fill="#0303B5"/>
<path d="M25.9954 11.4461H29.6089V12.5727C30.0478 12.0911 30.5796 11.7302 31.2032 11.4889C31.8268 11.2486 32.4782 11.1279 33.1584 11.1279C34.5894 11.1279 35.6487 11.4995 36.3363 12.2438C37.023 12.9881 37.3668 13.9972 37.3668 15.2722V21.6493H33.6262V15.7612C33.6262 14.6133 33.1019 14.0399 32.0532 14.0399C31.5716 14.0399 31.1317 14.1499 30.7355 14.3688C30.3383 14.5888 30.0051 14.9251 29.736 15.3779V21.6482H25.9954V11.4461Z" fill="#0303B5"/>
<path d="M40.7367 20.9146C40.0917 20.213 39.7692 19.253 39.7692 18.0346V14.0388H38.3234V11.4461H39.7692V8.38574H43.5099V11.4461H45.8484V14.0388H43.5099V17.5242C43.5099 18.0774 43.6124 18.4735 43.8185 18.7149C44.0235 18.9562 44.3887 19.0758 44.913 19.0758C45.3807 19.0758 45.8484 18.9487 46.3162 18.6935V21.4784C45.9478 21.6482 45.5548 21.7721 45.1362 21.85C44.7176 21.928 44.204 21.9664 43.5953 21.9664C42.3342 21.9664 41.3806 21.6162 40.7367 20.9146Z" fill="#0303B5"/>
<path d="M48.2184 20.7983C47.5169 20.0188 47.1666 18.9916 47.1666 17.7166V11.4463H50.9073V17.2916C50.9073 18.4683 51.4391 19.0556 52.5016 19.0556C52.9832 19.0556 53.422 18.9425 53.8193 18.715C54.2154 18.4886 54.5422 18.1555 54.7974 17.7166V11.4463H58.5381V21.6483H54.9245V20.5431C54.4856 21.0108 53.9538 21.3654 53.3302 21.6056C52.7066 21.8459 52.0552 21.9665 51.375 21.9665C49.9718 21.9665 48.92 21.5768 48.2184 20.7973V20.7983Z" fill="#0303B5"/>
<path d="M60.8846 21.0428C60.0986 20.4267 59.7046 19.566 59.7046 18.4608C59.7046 17.3556 60.0837 16.4309 60.8418 15.8147C61.6 15.1986 62.6871 14.89 64.1041 14.89C64.6572 14.89 65.2093 14.9509 65.7625 15.0704C66.3156 15.1911 66.7897 15.3502 67.187 15.5488V15.3363C67.187 14.245 66.2942 13.6994 64.5088 13.6994C63.2616 13.6994 62.1211 13.9407 61.0864 14.4223V11.8499C61.5402 11.6374 62.135 11.4644 62.8718 11.3288C63.6086 11.1942 64.3732 11.127 65.1677 11.127C67.0663 11.127 68.5015 11.506 69.4721 12.2642C70.4428 13.0224 70.9287 14.0816 70.9287 15.4421V21.6483H67.4219V20.7769C67.0396 21.1453 66.5569 21.4358 65.976 21.6483C65.3951 21.8608 64.7288 21.9676 63.9781 21.9676C62.7031 21.9676 61.6716 21.659 60.8856 21.0428H60.8846ZM66.3156 19.4058C66.6979 19.2286 66.9883 18.999 67.187 18.715V17.8222C66.5772 17.4111 65.8831 17.2061 65.1036 17.2061C64.6071 17.2061 64.2248 17.3118 63.9557 17.5254C63.6866 17.7379 63.552 18.0497 63.552 18.4608C63.552 18.8431 63.6834 19.141 63.945 19.3535C64.2066 19.566 64.5857 19.6728 65.0822 19.6728C65.5211 19.6728 65.9322 19.5842 66.3145 19.4069L66.3156 19.4058Z" fill="#0303B5"/>
<path d="M78.3238 17.4494L77.2507 20.7618C76.9442 21.7122 76.3003 22.387 75.0424 22.387C73.7844 22.387 72.7732 21.4666 72.7732 20.2407C72.7732 19.7506 72.927 19.3822 72.9878 19.2284L79.1514 2.54571C79.6725 1.1351 80.8685 0 82.4329 0C83.9973 0 85.1933 1.07317 85.7144 2.54571L91.7253 19.2284C91.9089 19.7185 91.9709 20.1478 91.9709 20.3635C91.9709 21.5595 90.9895 22.387 89.8544 22.387C88.5666 22.387 87.9227 21.7122 87.6162 20.7928L86.543 17.4505H78.3249L78.3238 17.4494ZM82.4639 4.78388H82.4019L79.6725 13.2165H85.1922L82.4628 4.78388H82.4639Z" fill="url(#paint2_linear_2131_30392)"/>
<path d="M93.4119 2.57651C93.4119 1.0431 94.3932 0.18457 95.712 0.18457C97.0308 0.18457 98.0121 1.0431 98.0121 2.57651V19.9949C98.0121 21.5283 97.0308 22.3869 95.712 22.3869C94.3932 22.3869 93.4119 21.5283 93.4119 19.9949V2.57651Z" fill="url(#paint3_linear_2131_30392)"/>
<defs>
<linearGradient id="paint0_linear_2131_30392" x1="99.9509" y1="25.3201" x2="102.961" y2="22.4421" gradientUnits="userSpaceOnUse">
<stop offset="0.31" stop-color="#E737A3"/>
<stop offset="0.44" stop-color="#A127A8"/>
<stop offset="0.72" stop-color="#0303B5"/>
<stop offset="1" stop-color="#036FB5"/>
</linearGradient>
<linearGradient id="paint1_linear_2131_30392" x1="-0.00106784" y1="28.7538" x2="96.739" y2="28.7538" gradientUnits="userSpaceOnUse">
<stop offset="0.2" stop-color="#E737A3"/>
<stop offset="0.21" stop-color="#E336A3"/>
<stop offset="0.3" stop-color="#A026A8"/>
<stop offset="0.39" stop-color="#681AAD"/>
<stop offset="0.48" stop-color="#3C10B0"/>
<stop offset="0.55" stop-color="#1D08B2"/>
<stop offset="0.61" stop-color="#0904B4"/>
<stop offset="0.66" stop-color="#0303B5"/>
<stop offset="1" stop-color="#036FB5"/>
</linearGradient>
<linearGradient id="paint2_linear_2131_30392" x1="74.407" y1="22.7352" x2="90.4661" y2="6.67588" gradientUnits="userSpaceOnUse">
<stop offset="0.31" stop-color="#E737A3"/>
<stop offset="0.46" stop-color="#A127A8"/>
<stop offset="0.77" stop-color="#0303B5"/>
<stop offset="1" stop-color="#036FB5"/>
</linearGradient>
<linearGradient id="paint3_linear_2131_30392" x1="89.6499" y1="17.3478" x2="101.774" y2="5.22245" gradientUnits="userSpaceOnUse">
<stop offset="0.31" stop-color="#E737A3"/>
<stop offset="0.46" stop-color="#A127A8"/>
<stop offset="0.77" stop-color="#0303B5"/>
<stop offset="1" stop-color="#036FB5"/>
</linearGradient>
</defs>
</svg>
